<?xml version="1.0" standalone="no"?>
<!DOCTYPE svg PUBLIC "-//W3C//DTD SVG 20010904//EN"
 "http://www.w3.org/TR/2001/REC-SVG-20010904/DTD/svg10.dtd">
<svg version="1.0" xmlns="http://www.w3.org/2000/svg"
 width="600.000000pt" height="600.000000pt" viewBox="0 0 600.000000 600.000000"
 preserveAspectRatio="xMidYMid meet">
<metadata>
Created by potrace 1.11, written by Peter Selinger 2001-2013
</metadata>
<g transform="translate(0.000000,600.000000) scale(0.100000,-0.100000)"
fill="#000000" stroke="none">
<path d="M2395 5994 c-105 -21 -134 -28 -157 -40 -15 -8 -63 -21 -105 -30 -43
-8 -91 -21 -108 -29 -16 -7 -59 -22 -95 -34 -36 -12 -87 -33 -115 -46 -126
-60 -205 -95 -214 -95 -5 0 -22 -11 -38 -24 -15 -13 -50 -33 -78 -45 -27 -12
-59 -30 -70 -40 -11 -10 -38 -28 -60 -40 -64 -35 -165 -106 -223 -159 -21 -18
-84 -72 -142 -121 -58 -48 -142 -128 -187 -177 -113 -122 -223 -252 -223 -264
0 -5 -15 -25 -32 -44 -36 -37 -108 -146 -108 -162 0 -6 -13 -23 -29 -38 -16
-15 -32 -43 -35 -60 -4 -18 -18 -43 -31 -56 -14 -13 -30 -42 -36 -64 -6 -23
-21 -54 -33 -71 -13 -16 -29 -48 -36 -70 -7 -22 -22 -58 -35 -80 -13 -22 -28
-60 -35 -85 -7 -25 -20 -61 -30 -80 -10 -20 -26 -69 -36 -110 -9 -41 -25 -95
-36 -119 -10 -25 -24 -81 -29 -125 -6 -45 -17 -101 -25 -125 -20 -65 -21 -958
0 -1064 8 -40 17 -99 21 -132 4 -33 16 -82 26 -110 11 -27 28 -85 39 -129 11
-43 29 -93 39 -110 11 -17 22 -52 26 -78 4 -26 18 -62 31 -80 14 -18 31 -55
39 -83 9 -27 26 -65 39 -85 13 -19 27 -46 31 -60 4 -14 18 -38 31 -53 13 -15
28 -45 34 -66 5 -20 21 -48 35 -61 14 -13 25 -29 25 -36 0 -7 15 -32 34 -57
19 -24 40 -55 46 -68 12 -23 38 -57 94 -124 14 -16 42 -52 62 -80 41 -57 390
-405 406 -405 6 0 40 -26 77 -59 36 -32 80 -65 97 -74 17 -9 37 -23 44 -32 7
-9 29 -23 49 -31 20 -8 46 -24 58 -36 24 -23 63 -44 230 -127 190 -94 227
-110 265 -116 21 -3 50 -17 66 -30 19 -16 51 -28 97 -35 38 -6 89 -20 114 -30
25 -11 136 -38 246 -62 l200 -42 372 -3 373 -4 102 30 c57 16 141 34 188 41
47 7 110 23 140 35 30 12 90 30 132 39 42 9 82 23 88 31 6 8 37 19 68 25 31 7
64 19 73 26 9 8 52 30 95 48 44 19 108 50 144 69 36 20 85 46 110 58 25 12 61
35 80 50 19 16 40 29 47 29 7 0 27 13 45 29 18 15 47 35 63 44 17 9 57 40 91
69 33 29 80 69 104 88 145 117 250 225 408 417 101 124 157 201 193 268 12 22
32 51 45 65 13 14 30 45 38 69 9 23 27 56 41 73 14 16 25 42 25 58 0 18 11 42
28 62 16 18 35 55 42 81 7 26 21 58 31 71 10 13 27 58 39 101 11 42 27 89 34
104 7 14 21 60 31 101 9 41 23 84 30 96 7 11 20 76 29 143 9 67 21 131 27 142
19 36 30 275 26 544 -4 244 -10 315 -35 425 -6 25 -16 83 -22 130 -7 47 -20
103 -30 125 -10 22 -24 69 -30 105 -7 36 -22 85 -35 110 -12 25 -30 72 -40
105 -9 33 -25 74 -35 90 -9 17 -25 53 -34 82 -10 28 -23 57 -31 63 -8 6 -21
33 -30 60 -9 26 -24 55 -35 65 -11 10 -24 34 -31 54 -6 20 -24 53 -40 73 -16
20 -29 41 -29 46 0 6 -15 28 -32 50 -18 22 -42 54 -53 73 -49 80 -67 103 -182
235 -120 137 -320 334 -404 397 -23 17 -59 44 -78 60 -20 15 -49 35 -64 45
-16 9 -48 32 -70 49 -23 18 -47 33 -54 33 -6 0 -25 11 -41 25 -17 14 -50 34
-75 45 -24 11 -50 26 -56 34 -7 8 -34 22 -60 31 -26 8 -63 27 -81 40 -19 14
-42 25 -51 25 -9 0 -42 13 -74 30 -31 16 -77 36 -103 44 -26 7 -65 21 -87 31
-22 9 -83 27 -136 40 -52 12 -104 27 -116 33 -11 6 -60 18 -108 27 -72 12
-186 15 -644 14 -306 -1 -565 -3 -576 -5z m2071 -1758 c157 -23 293 -105 339
-203 57 -119 11 -304 -118 -472 -42 -55 -194 -191 -277 -249 -62 -43 -212
-132 -221 -132 -5 0 -34 -16 -65 -36 -48 -31 -54 -38 -42 -50 7 -7 49 -19 93
-25 250 -34 389 -250 331 -512 -41 -182 -201 -410 -389 -554 -64 -49 -226
-138 -279 -154 -86 -26 -255 -28 -355 -4 -40 9 -149 111 -167 155 -25 62 -21
146 9 207 84 167 295 141 295 -37 0 -22 -7 -54 -14 -69 -16 -30 -80 -91 -96
-91 -19 0 -50 -40 -50 -64 0 -28 21 -36 96 -36 172 0 337 81 489 241 151 159
215 303 217 488 2 146 -60 250 -184 307 -55 25 -75 29 -153 29 -67 0 -101 -5
-132 -19 -50 -22 -73 -16 -73 20 0 43 77 109 185 159 51 24 110 55 131 69 227
153 296 210 396 327 137 161 202 373 152 498 -20 51 -84 101 -148 116 -124 29
-427 26 -611 -6 -155 -26 -406 -98 -577 -165 -48 -19 -92 -34 -98 -34 -6 0
-35 -11 -63 -24 -183 -85 -274 -126 -279 -126 -7 0 -282 -150 -358 -195 -76
-46 -232 -151 -309 -209 -30 -23 -66 -50 -80 -60 -50 -38 -156 -132 -260 -231
-207 -199 -353 -414 -416 -611 -70 -219 -52 -361 57 -459 40 -37 133 -87 183
-100 117 -29 417 -20 520 15 33 12 85 29 115 39 212 71 525 291 698 494 109
126 141 172 437 622 343 522 369 559 498 700 87 95 215 214 248 229 12 6 28 5
44 -2 40 -18 32 -51 -26 -107 -76 -74 -132 -151 -199 -272 -33 -59 -65 -115
-70 -123 -5 -8 -19 -33 -31 -55 -44 -82 -153 -272 -184 -320 -34 -54 -200
-304 -225 -339 -144 -207 -457 -530 -630 -649 -80 -55 -170 -113 -205 -132
-22 -11 -49 -26 -60 -33 -118 -67 -324 -138 -460 -158 -385 -55 -618 -10 -783
153 -78 77 -117 145 -138 242 -71 335 148 717 632 1102 132 105 125 100 279
202 210 140 439 265 700 383 124 55 398 160 475 181 30 8 87 25 125 38 39 13
88 26 110 30 22 4 82 18 132 32 206 54 611 73 839 39z"/>
</g>
</svg>
